# xmcd
#
# Track frame offsets: 
#        150
#        17055
#        32630
#        49565
#        76877
#        89435
#        122360
#        155780
#        179550
#        196702
#        217522
#        246017
#        257935
#        276142
#
# Disc length: 3849 seconds
#
# Revision: 0
# Processed by: cddbd v1.5.1PL2 Copyright (c) Steve Scherf et al.
# Submitted via: ExactAudioCopy v0.95b4
#
DISCID=b00f070e
DTITLE=John Littlejohn - Dream
DYEAR=1995
DGENRE=Blues
TTITLE0=Rob and Steal
TTITLE1=Five Long Years
TTITLE2=Reconsider Baby
TTITLE3=Twelve Years Old Boy
TTITLE4=Kiddeo
TTITLE5=Dream
TTITLE6=That's All Right
TTITLE7=I Can't Stay Here
TTITLE8=Bobby's Rock
TTITLE9=Dust My Broom
TTITLE10=Twenty Nine Ways
TTITLE11=I Don't Know Why I Love You
TTITLE12=I Play The Blues For You
TTITLE13=May Be I Don't Know
EXTD=
EXTT0=
EXTT1=
EXTT2=
EXTT3=
EXTT4=
EXTT5=
EXTT6=
EXTT7=
EXTT8=
EXTT9=
EXTT10=
EXTT11=
EXTT12=
EXTT13=
PLAYORDER=
